<?xml version="1.0" standalone="no"?>
<!DOCTYPE svg PUBLIC "-//W3C//DTD SVG 20010904//EN"
 "http://www.w3.org/TR/2001/REC-SVG-20010904/DTD/svg10.dtd">
<svg version="1.0" xmlns="http://www.w3.org/2000/svg"
 width="309.000000pt" height="309.000000pt" viewBox="0 0 309.000000 309.000000"
 preserveAspectRatio="xMidYMid meet">
<metadata>
Created by potrace 1.11, written by Peter Selinger 2001-2013
</metadata>
<g transform="translate(0.000000,309.000000) scale(0.100000,-0.100000)"
fill="#000000" stroke="none">
<path d="M955 2334 c-140 -30 -184 -47 -223 -85 -31 -30 -49 -66 -38 -76 2 -3
-17 -31 -44 -64 -26 -32 -60 -80 -75 -106 -16 -28 -40 -54 -59 -63 -65 -32
-215 -242 -235 -331 -16 -72 -81 -112 -148 -91 -64 20 -105 -18 -89 -82 5 -19
77 -85 145 -133 2 -1 -15 -24 -39 -50 -54 -61 -103 -150 -130 -236 l-22 -68
43 -55 c24 -31 69 -79 102 -108 l59 -53 206 2 c142 2 207 6 210 14 2 6 12 11
22 11 25 0 33 16 32 56 -1 26 -11 42 -42 70 -64 58 -65 65 -23 117 21 25 41
43 45 41 19 -12 41 -72 48 -132 5 -35 13 -69 18 -74 22 -22 150 -32 247 -19
52 8 101 11 110 8 19 -8 19 10 2 54 -8 19 -15 52 -16 74 -2 22 -3 51 -4 64 -2
20 4 26 33 34 19 5 58 6 85 2 28 -5 83 -7 122 -6 l73 1 -46 -71 c-58 -91 -55
-110 22 -146 65 -29 243 -50 301 -34 27 8 44 6 78 -9 82 -35 120 -42 275 -50
122 -6 161 -5 185 6 17 7 37 13 45 12 37 -3 61 3 77 21 10 11 31 21 48 23 52
6 46 85 -12 149 -20 22 -46 67 -58 103 -12 36 -43 104 -69 152 -25 48 -45 87
-44 88 73 28 192 119 239 184 22 30 36 41 48 37 86 -34 375 -30 486 6 103 34
114 52 135 219 12 97 13 177 3 245 -6 46 -8 48 -58 70 -104 46 -221 56 -371
30 -229 -39 -285 -76 -344 -225 -33 -84 -110 -207 -135 -217 -16 -5 -128 31
-164 54 -12 8 -36 43 -51 76 -49 107 -216 304 -284 333 -23 10 -60 35 -84 56
-23 21 -62 51 -86 66 -24 15 -54 40 -67 54 -39 42 -184 79 -308 77 -36 0 -115
-11 -176 -25z"/>
</g>
</svg>
